<svg id='Google_24' width='24' height='24' viewBox='0 0 24 24' xmlns='http://www.w3.org/2000/svg' xmlns:xlink='http://www.w3.org/1999/xlink'><rect width='24' height='24' stroke='none' fill='#000000' opacity='0'/>


    <g transform="matrix(0.31 0 0 0.31 12 12)" >
        <g style="" >
            <g transform="matrix(1 0 0 1 -2.6 -17.91)" >
                <linearGradient id="SVGID_95yY7w43Oj6n2vH63j6HJb_2" gradientUnits="userSpaceOnUse" gradientTransform="matrix(1 0 0 -1 0 66)" x1="29.401" y1="4.064" x2="29.401" y2="106.734">
                    <stop offset="0%" style="stop-color:rgb(255,88,64);stop-opacity: 1"/>
                    <stop offset="0.7000000000000001%" style="stop-color:rgb(255,88,64);stop-opacity: 1"/>
                    <stop offset="98.9%" style="stop-color:rgb(250,82,140);stop-opacity: 1"/>
                    <stop offset="100%" style="stop-color:rgb(250,82,140);stop-opacity: 1"/>
                </linearGradient>
                <path style="stroke: none; stroke-width: 1; stroke-dasharray: none; stroke-linecap: butt; stroke-dashoffset: 0; stroke-linejoin: miter; stroke-miterlimit: 4; fill: url(#SVGID_95yY7w43Oj6n2vH63j6HJb_2); fill-rule: nonzero; opacity: 1;" transform=" translate(-29.4, -14.09)" d="M 47.46 15.5 L 46.09 16.98 C 44.75 18.42 42.59 18.65 40.940000000000005 17.580000000000002 C 38.230000000000004 15.830000000000002 34.510000000000005 14.450000000000003 29.940000000000005 15.21 C 25.000000000000004 16.04 20.770000000000003 19.060000000000002 18.300000000000004 23.18 L 10.270000000000005 17.1 C 14.99 9.82 23.2 5 32.5 5 C 37.5 5 42.44 6.5600000000000005 46.769999999999996 9.46 C 48.81 10.83 49.13 13.71 47.46 15.5 z" stroke-linecap="round" />
            </g>
            <g transform="matrix(1 0 0 1 -19.85 -1.49)" >
                <linearGradient id="SVGID_95yY7w43Oj6n2vH63j6HJc_3" gradientUnits="userSpaceOnUse" gradientTransform="matrix(1 0 0 -1 0 66)" x1="12.148" y1="0.872" x2="12.148" y2="47.812">
                    <stop offset="0%" style="stop-color:rgb(254,170,83);stop-opacity: 1"/>
                    <stop offset="61.199999999999996%" style="stop-color:rgb(255,205,73);stop-opacity: 1"/>
                    <stop offset="100%" style="stop-color:rgb(255,222,68);stop-opacity: 1"/>
                </linearGradient>
                <path style="stroke: none; stroke-width: 1; stroke-dasharray: none; stroke-linecap: butt; stroke-dashoffset: 0; stroke-linejoin: miter; stroke-miterlimit: 4; fill: url(#SVGID_95yY7w43Oj6n2vH63j6HJc_3); fill-rule: nonzero; opacity: 1;" transform=" translate(-12.15, -30.51)" d="M 16.01 30.91 C 15.920000000000002 33.38 16.380000000000003 35.74 17.28 37.87 L 9.07 43.919999999999995 C 7.720000000000001 41.41 6.7700000000000005 38.63999999999999 6.32 35.699999999999996 C 5.26 28.819999999999997 6.86 22.319999999999993 10.27 17.099999999999994 L 18.299999999999997 23.179999999999993 C 16.93 25.47 16.1 28.11 16.01 30.91 z" stroke-linecap="round" />
            </g>
            <g transform="matrix(1 0 0 1 -2.24 15.93)" >
                <linearGradient id="SVGID_95yY7w43Oj6n2vH63j6HJd_4" gradientUnits="userSpaceOnUse" gradientTransform="matrix(1 0 0 -1 0 66)" x1="29.76" y1="32.149" x2="29.76" y2="-6.939">
                    <stop offset="0%" style="stop-color:rgb(66,215,120);stop-opacity: 1"/>
                    <stop offset="42.8%" style="stop-color:rgb(61,202,118);stop-opacity: 1"/>
                    <stop offset="100%" style="stop-color:rgb(52,177,113);stop-opacity: 1"/>
                </linearGradient>
                <path style="stroke: none; stroke-width: 1; stroke-dasharray: none; stroke-linecap: butt; stroke-dashoffset: 0; stroke-linejoin: miter; stroke-miterlimit: 4; fill: url(#SVGID_95yY7w43Oj6n2vH63j6HJd_4); fill-rule: nonzero; opacity: 1;" transform=" translate(-29.76, -47.93)" d="M 50.45 51.28 C 45.900000000000006 55.35 39.84 57.85 33.09 57.99 C 22.91 58.2 13.66 52.53 9.07 43.92 L 17.28 37.870000000000005 C 19.78 43.81 25.67 48 32.5 48 C 36.44 48 40.019999999999996 46.72 42.83 44.56 L 50.45 51.28 z" stroke-linecap="round" />
            </g>
            <g transform="matrix(1 0 0 1 14 7.14)" >
                <linearGradient id="SVGID_95yY7w43Oj6n2vH63j6HJe_5" gradientUnits="userSpaceOnUse" gradientTransform="matrix(1 0 0 -1 0 66)" x1="46" y1="3.638" x2="46" y2="35.593">
                    <stop offset="0%" style="stop-color:rgb(21,92,222);stop-opacity: 1"/>
                    <stop offset="27.800000000000004%" style="stop-color:rgb(31,127,229);stop-opacity: 1"/>
                    <stop offset="56.89999999999999%" style="stop-color:rgb(39,156,235);stop-opacity: 1"/>
                    <stop offset="82%" style="stop-color:rgb(44,175,239);stop-opacity: 1"/>
                    <stop offset="100%" style="stop-color:rgb(46,181,240);stop-opacity: 1"/>
                </linearGradient>
                <path style="stroke: none; stroke-width: 1; stroke-dasharray: none; stroke-linecap: butt; stroke-dashoffset: 0; stroke-linejoin: miter; stroke-miterlimit: 4; fill: url(#SVGID_95yY7w43Oj6n2vH63j6HJe_5); fill-rule: nonzero; opacity: 1;" transform=" translate(-46, -39.14)" d="M 59 31.97 C 59.01 39.7 55.74 46.55 50.45 51.28 L 42.830000000000005 44.56 C 44.93000000000001 42.95 46.60000000000001 40.85 47.67 38.410000000000004 C 47.96 37.75000000000001 47.47 37.00000000000001 46.75 37.00000000000001 L 37 37.00000000000001 C 34.79 37.00000000000001 33 35.21000000000001 33 33.00000000000001 L 33 31.000000000000007 C 33 28.790000000000006 34.79 27.000000000000007 37 27.000000000000007 L 54 27.000000000000007 C 56.75 27 59 29.22 59 31.97 z" stroke-linecap="round" />
            </g>
        </g>
    </g>
</svg>